# xmcd CD database file
#
# Track frame offsets:
#	150
#	21906
#	38768
#	63777
#	81573
#	99332
#	119195
#	135526
#	154585
#	173073
#	194106
#	214472
#
# Disc length: 3065 seconds
#
# Revision: 0
# Processed by: cddbd v1.4PL0 Copyright (c) Steve Scherf et al.
# Submitted via: CDex 1.50beta10
#
DISCID=ad0bf70c
DTITLE=Roscoe Robinson - Roads and Rails
DYEAR=1998
DGENRE=Blues
TTITLE0=Something Moving In Me
TTITLE1=Fine Lady
TTITLE2=I Would Have Nothing
TTITLE3=So Called Friends
TTITLE4=Fall In Love Again
TTITLE5=Wouldn't Know Where To Turn
TTITLE6=I Honestly Love You
TTITLE7=Get Up To It
TTITLE8=Come A Long Way
TTITLE9=Let It Be Me
TTITLE10=Just The Way You Are
TTITLE11=That's Enough
EXTD=YEAR: 1998
EXTT0=
EXTT1=
EXTT2=
EXTT3=
EXTT4=
EXTT5=
EXTT6=
EXTT7=
EXTT8=
EXTT9=
EXTT10=
EXTT11=
PLAYORDER=
